<?xml version="1.0" encoding="UTF-8"?>
<svg xmlns="http://www.w3.org/2000/svg" viewBox="0 0 64 64" width="512" height="512" fill="#ffeb3b">
  <g id="outline">
    <path
      d="M57.351,28.063a9.209,9.209,0,0,0-2.657-.5c-.18-.014-.4-.03-.578-.052.089-.118.193-.248.28-.358a7.093,7.093,0,0,0,1.579-2.928c.58-2.533.709-7.3-2.486-9.1a5.825,5.825,0,0,0-4.607-.389,8.2,8.2,0,0,0-4.77,3.8c-1.138,2.2-.528,4.437-.037,6.234.3,1.112.59,2.162.231,2.5-.417.4-1.661.065-2.865-.264-.377-.1-.764-.2-1.152-.3A8.007,8.007,0,0,0,33,22c-.028,0-.054,0-.082,0a9.293,9.293,0,0,0-.568-2.22c-1.994-5.063-7.593-7.623-11.266-6.532a6,6,0,0,0-2.719,1.766,10.015,10.015,0,0,0-3.108-2.884,11.494,11.494,0,0,0-9.159-.7,6.042,6.042,0,0,0-3.848,3.2c-.933,2.362.8,5.043,3.95,9.91.336.52.687,1.029,1.035,1.541a18.192,18.192,0,0,0-2.413,1.1,5.252,5.252,0,0,0-2.449,2.449A9.9,9.9,0,0,0,2,33,29.033,29.033,0,0,0,31,62h2A29.033,29.033,0,0,0,62,33a1.784,1.784,0,0,0-.108-.452A8.659,8.659,0,0,0,57.351,28.063Zm-16.429.884c1.741.472,3.539.96,4.77-.225,1.215-1.164.756-2.846.312-4.473s-.895-3.283-.116-4.789a6.2,6.2,0,0,1,3.567-2.8,3.919,3.919,0,0,1,3.054.216c2.013,1.134,2.01,4.751,1.516,6.906A5.256,5.256,0,0,1,52.836,25.9c-.548.685-1.23,1.536-.731,2.546.482.963,1.523,1.041,2.441,1.109a7.322,7.322,0,0,1,2.1.38A5.77,5.77,0,0,1,59.215,32H49.2c.23-1.263.483-2.527.775-3.771.545-2.323,1.209-4.648,1.973-6.909l-1.894-.64c-.785,2.321-1.467,4.707-2.027,7.091-.327,1.395-.609,2.813-.859,4.229H40.738a7.541,7.541,0,0,0,.184-3.053ZM34,26V24.09a6.01,6.01,0,0,1,4.766,4.268l-2.082.694.632,1.9,1.663-.554A5.826,5.826,0,0,1,38.654,32H27.346A5.886,5.886,0,0,1,27,30a6.026,6.026,0,0,1,.031-.6l1.653.551.632-1.9-1.748-.583A6.01,6.01,0,0,1,32,24.09V26ZM21.655,15.169c2.726-.812,7.276,1.393,8.835,5.349a7.294,7.294,0,0,1,.449,1.761,7.959,7.959,0,0,0-5.688,9.682L25.168,32H20.556c.428-.445.847-.9,1.228-1.38a20.483,20.483,0,0,0,4.21-10.511l-1.988-.218a18.6,18.6,0,0,1-3.79,9.489c-.056.071-.124.133-.181.2a17,17,0,0,0-.582-12.747A4.346,4.346,0,0,1,21.655,15.169Zm-17.544.2a4.2,4.2,0,0,1,2.646-2.044,9.56,9.56,0,0,1,7.5.543c4.784,2.762,5.878,10.721,3.627,15.724-.079.176-.172.338-.262.5-.193-.815-.41-1.622-.674-2.409A29.153,29.153,0,0,0,8.671,15.259L7.329,16.741a27.189,27.189,0,0,1,7.723,11.576A25.744,25.744,0,0,1,15.979,32H14.25a79.677,79.677,0,0,1-6.371-8.543C5.038,19.064,3.58,16.71,4.111,15.367ZM4.2,30.437a3.164,3.164,0,0,1,1.575-1.5,15.985,15.985,0,0,1,2.643-1.154Q9.975,29.952,11.653,32h-7.6A2.727,2.727,0,0,1,4.2,30.437ZM33,60H31A27.032,27.032,0,0,1,4.018,34H59.982A27.032,27.032,0,0,1,33,60Z" />
    <rect x="32" y="28" width="2" height="2" />
    <path
      d="M34,14v2a1,1,0,0,0,1,1h4a9.01,9.01,0,0,0,9-9V6a1,1,0,0,0-1-1H43A9.01,9.01,0,0,0,34,14Zm9-7h3V8a7.008,7.008,0,0,1-7,7H37.7l4.948-4.241-1.3-1.518-5.34,4.577A7,7,0,0,1,43,7Z" />
    <path d="M25,8a3,3,0,1,0,3-3A3,3,0,0,0,25,8Zm4,0a1,1,0,1,1-1-1A1,1,0,0,1,29,8Z" />
    <path d="M12,5a3,3,0,1,0,3-3A3,3,0,0,0,12,5Zm4,0a1,1,0,1,1-1-1A1,1,0,0,1,16,5Z" />
    <path d="M10.855,43.481l-1.71,1.038A27.157,27.157,0,0,0,20.565,54.9l.87-1.8a25.172,25.172,0,0,1-10.58-9.619Z" />
    <rect x="23" y="54" width="2" height="2" />
  </g>
</svg>