<?xml version="1.0" standalone="no"?>
<!DOCTYPE svg PUBLIC "-//W3C//DTD SVG 20010904//EN"
 "http://www.w3.org/TR/2001/REC-SVG-20010904/DTD/svg10.dtd">
<svg version="1.0" xmlns="http://www.w3.org/2000/svg"
 width="700.000000pt" height="700.000000pt" viewBox="0 0 700.000000 700.000000"
 preserveAspectRatio="xMidYMid meet">
<metadata>
Created by potrace 1.14, written by Peter Selinger 2001-2017
</metadata>
<g transform="translate(0.000000,700.000000) scale(0.100000,-0.100000)"
fill="#000000" stroke="none">
<path d="M821 6466 c-47 -17 -108 -80 -121 -124 -30 -110 13 -207 111 -252 43
-19 66 -20 997 -20 644 0 967 3 995 11 49 12 71 29 112 83 27 35 30 47 30 111
0 63 -4 77 -29 113 -16 23 -45 52 -65 65 l-36 22 -980 2 c-760 1 -988 -1
-1014 -11z"/>
<path d="M4185 5865 c-49 -17 -120 -92 -129 -136 -3 -17 -6 -94 -6 -170 0
-104 -3 -139 -12 -140 -7 0 -125 -1 -262 -1 -136 0 -266 -5 -287 -11 -22 -5
-57 -26 -80 -46 -109 -98 -78 -279 59 -337 25 -11 97 -15 307 -16 l275 -1 0
-142 c0 -81 5 -157 12 -176 30 -90 97 -136 203 -143 39 -2 71 -4 72 -5 1 -1
-19 -30 -46 -65 -61 -80 -144 -249 -170 -346 -44 -160 -44 -164 -46 -838 -1
-359 -5 -655 -9 -659 -6 -7 -834 -9 -839 -2 -3 3 -158 522 -207 695 l-18 61
62 27 c152 65 248 218 247 391 -1 335 -212 644 -524 769 -156 62 -103 60
-1227 60 l-1025 1 -75 -24 c-72 -22 -153 -60 -195 -91 -61 -45 -154 -153 -186
-215 -62 -120 -74 -166 -73 -300 0 -105 4 -130 28 -200 53 -154 171 -290 310
-359 76 -37 171 -68 180 -59 3 4 6 1 6 -5 0 -7 -22 -33 -48 -59 -215 -211
-377 -512 -437 -808 -27 -131 -32 -244 -31 -616 l1 -396 30 -48 c47 -77 98
-98 237 -99 l110 -2 23 -74 c81 -273 235 -470 490 -627 52 -33 218 -97 275
-107 326 -60 606 -2 843 172 210 154 328 333 412 627 1 7 426 10 1250 10 1099
0 1249 -2 1255 -15 4 -8 18 -49 30 -90 109 -365 427 -645 813 -715 72 -13 301
-13 362 0 332 70 596 267 739 554 85 170 116 308 111 496 -5 209 -59 385 -171
555 -15 22 -25 42 -23 43 2 2 22 9 45 15 22 6 57 28 77 49 67 66 76 143 41
358 -10 59 -66 211 -105 283 -148 276 -421 471 -749 537 -43 9 -179 17 -271
17 -64 0 -121 3 -126 7 -6 3 -24 74 -41 156 -17 83 -47 227 -67 320 -20 94
-38 181 -41 195 -2 14 -7 39 -11 55 -4 17 -8 35 -9 40 -10 54 -76 363 -79 372
-2 7 14 22 38 34 124 64 229 173 292 304 181 379 -17 811 -428 933 -74 21
-1121 28 -1182 7z m1117 -418 c21 -9 54 -33 74 -54 128 -128 87 -341 -78 -413
-52 -23 -61 -23 -423 -24 -203 -1 -380 0 -392 3 l-23 3 0 254 0 253 403 -3
c354 -2 406 -4 439 -19z m-203 -1102 c39 -192 91 -441 131 -625 17 -80 33
-158 36 -175 3 -16 9 -46 14 -65 52 -206 54 -224 55 -665 l1 -419 -35 -31
c-166 -143 -263 -286 -328 -486 l-38 -114 -1012 0 c-556 0 -1014 3 -1016 5 -3
3 -8 21 -11 40 -29 175 -81 329 -163 479 -190 353 -531 619 -913 715 -147 36
-224 44 -400 41 -96 -1 -185 -5 -196 -8 -12 -3 -39 -8 -60 -11 -164 -27 -378
-116 -531 -223 -35 -24 -63 -40 -63 -37 0 3 17 31 37 62 159 245 393 420 668
501 39 11 86 23 105 25 19 3 46 8 60 12 14 3 276 7 582 7 l557 2 32 -110 c17
-60 37 -128 44 -150 7 -22 22 -71 33 -110 122 -413 157 -525 177 -566 54 -106
184 -198 305 -216 30 -5 258 -8 505 -8 437 1 452 2 516 24 136 45 235 148 274
285 16 53 18 131 20 725 1 366 5 677 8 690 45 175 97 271 207 382 92 93 175
146 288 184 61 21 68 21 73 6 4 -9 21 -84 38 -166z m-2487 -142 c127 -47 219
-138 266 -265 21 -57 31 -126 20 -144 -4 -6 -434 -9 -1165 -9 l-1158 1 -41 22
c-147 76 -165 277 -33 374 59 44 49 44 1075 43 965 -1 980 -2 1036 -22z m3374
-1177 c83 -8 185 -40 264 -84 84 -46 206 -168 247 -247 58 -112 79 -101 -199
-99 -134 1 -286 2 -338 3 -69 1 -206 -11 -215 -19 -1 -1 3 437 4 442 2 14 111
16 237 4z m-4327 -407 c327 -67 606 -288 746 -591 42 -92 89 -249 76 -257 -7
-5 -2005 -7 -2033 -2 -21 3 42 212 97 322 96 191 236 336 415 432 73 39 186
82 246 92 21 4 57 11 79 15 78 14 281 8 374 -11z m4495 -458 c269 -95 437
-332 434 -611 -3 -287 -206 -538 -488 -604 -91 -21 -245 -15 -330 14 -211 71
-373 246 -427 460 -14 56 -12 226 3 285 36 143 114 262 234 357 60 47 119 77
210 105 65 20 90 23 190 19 83 -3 132 -10 174 -25z m-4163 -852 c-66 -171
-253 -324 -451 -365 -264 -55 -543 74 -675 311 -62 113 -131 100 549 100 l594
0 -17 -46z"/>
<path d="M5908 1759 c-108 -29 -176 -148 -147 -253 35 -121 177 -185 289 -129
76 38 119 111 114 196 -6 125 -137 219 -256 186z"/>
<path d="M360 5640 c-237 -5 -244 -7 -303 -74 -37 -42 -51 -89 -44 -152 9 -84
64 -152 141 -174 29 -8 312 -10 1003 -8 l961 3 44 30 c23 17 54 51 67 75 59
106 3 251 -112 289 -36 12 -1357 20 -1757 11z"/>
</g>
</svg>
